# xmcd CD database file
#
# Track frame offsets:
#	150
#	13797
#	31210
#	46002
#	63777
#	78452
#	95032
#	111562
#	129685
#	145835
#	160150
#	174300
#
# Disc length: 2541 seconds
#
# Revision: 0
# Processed by: cddbd v1.4PL0 Copyright (c) Steve Scherf et al.
# Submitted via: CDex 1.50Beta7
#
DISCID=9a09eb0c
DTITLE=Fernest Arceneaux and The Thunders - Rockin' Pneumonia
DYEAR=1979
DGENRE=Blues
TTITLE0=Please Don't Leave Me
TTITLE1=Persone Pole Danse Avec Moi
TTITLE2=Goin' Back To Lafayette
TTITLE3=Honest I Do
TTITLE4=Rockin' Pneumonia
TTITLE5=The Things I Used To Do
TTITLE6=Ma Negresse
TTITLE7=Don't Cry No More
TTITLE8=Irene
TTITLE9=Zydeco Boogaloo
TTITLE10=Jole Blonde
TTITLE11=Et Lá-bas
EXTD=YEAR: 1979
EXTT0=
EXTT1=
EXTT2=
EXTT3=
EXTT4=
EXTT5=
EXTT6=
EXTT7=
EXTT8=
EXTT9=
EXTT10=
EXTT11=
PLAYORDER=
